####
#
# OBJ File Generated by Meshlab
#
####
# Object left_foot_scaled.obj
#
# Vertices: 109
# Faces: 214
#
####
vn 1.5707964 -1.5707964 1.5707963
v 0.3477152 0.0751890 0.6666720
vn -1.5707963 -1.5707964 -1.5707965
v 0.0000000 0.0751890 0.0000000
vn -1.7639616 1.5334799 1.9096899
v 0.0000000 0.1926981 0.6666720
vn 1.9218807 5.9099536 -0.8907918
v 0.3094349 0.1677948 0.1302611
vn -1.5707963 -1.5707964 1.5707965
v 0.0000000 0.0751890 0.6666720
vn 1.9224516 5.9141121 0.8616640
v 0.3097373 0.1687094 0.5295596
vn -3.0123806 3.0824809 -0.5898854
v 0.0000000 0.2066764 0.0647137
vn 1.5707963 -1.5707964 -1.5707963
v 0.3477152 0.0751890 0.0000000
vn 0.9612153 2.9122207 3.8204434
v 0.3016073 0.1441236 0.6666720
vn 0.6669267 6.2412491 -0.0151412
v 0.1062534 0.2263879 0.3298619
vn 4.1662593 2.9697287 -0.0027768
v 0.3477152 0.1696493 0.3298619
vn 0.8102409 2.9722559 -3.7538085
v 0.2526559 0.1588780 0.0000000
vn 0.9811547 6.0921607 1.1495645
v 0.1551729 0.1955407 0.5951821
vn -3.0116572 3.1353598 0.1381201
v 0.0000000 0.2306583 0.3966934
vn 2.2982900 1.3694795 -2.2443442
v 0.3477152 0.1275608 0.0000000
vn 2.2995763 1.3690070 2.2443814
v 0.3477152 0.1275608 0.6666720
vn 1.3250213 6.1291304 0.2762403
v 0.2110099 0.2081102 0.3966934
vn -1.7425275 1.5403565 -1.8769035
v 0.0000000 0.1926981 0.0000000
vn 0.9879746 6.1345034 -0.8889340
v 0.1567111 0.2050914 0.1302611
vn 1.6229115 5.9534230 1.1495652
v 0.2566688 0.1735989 0.5951821
vn 0.4876560 3.0279408 3.8193834
v 0.1527469 0.1804767 0.6666720
vn -3.0116642 3.1346562 -0.1532587
v 0.0000000 0.2303358 0.2630413
vn 0.6641971 6.2157087 0.5675477
v 0.1056286 0.2205408 0.4633282
vn 4.1466012 2.9544401 -0.3609849
v 0.3477152 0.1605962 0.1773230
vn 1.9079037 5.8631177 -1.1821924
v 0.3059959 0.1573952 0.0647137
vn 4.1444654 2.9561172 0.3530433
v 0.3477152 0.1607212 0.4882739
vn 4.1612716 2.9132209 0.5853435
v 0.3477152 0.1439085 0.5951868
vn 1.6488562 6.0486002 -0.3065171
v 0.2625548 0.1951907 0.2630413
vn 0.6550452 6.1300621 -1.1797711
v 0.1035575 0.2011591 0.0647137
vn 1.3138400 6.0774083 0.8586917
v 0.2084606 0.1963176 0.5295596
vn 0.3259489 6.1179795 1.3755289
v 0.0511932 0.1929276 0.6599917
vn 1.2945814 5.9883208 1.3755246
v 0.2033253 0.1725634 0.6599917
vn 0.3339363 6.2678924 -0.0151407
v 0.0532020 0.2306326 0.3298619
vn 0.6638978 6.2129035 -0.5978116
v 0.1055601 0.2199006 0.1964387
vn -3.0120173 3.1089013 0.4293459
v 0.0000000 0.2185932 0.5295596
vn 0.9970643 6.1909437 0.2762398
v 0.1587826 0.2179540 0.3966934
vn 0.9579917 2.9263127 -3.7621627
v 0.3016073 0.1441236 0.0000000
vn 1.3129420 6.0732536 -0.8889341
v 0.2082570 0.1953760 0.1302611
vn 4.1449275 2.9291253 -0.5315026
v 0.3477152 0.1471428 0.0882707
vn 1.6440645 6.0310230 0.5675474
v 0.2614587 0.1911700 0.4633282
vn 4.1427383 2.9061317 0.6488311
v 0.3477152 0.1387808 0.6196820
vn 4.1477537 2.9424486 0.4447216
v 0.3477152 0.1548611 0.5324081
vn 1.9093304 5.8688798 1.1509458
v 0.3063977 0.1586102 0.5951821
vn 1.6508203 6.0558052 -0.0151405
v 0.2630053 0.1968434 0.3298619
vn 1.9221109 5.9468803 -0.5996830
v 0.3119135 0.1752902 0.1964387
vn 0.3279871 6.1562309 -1.1797706
v 0.0518522 0.2052961 0.0647137
vn 0.4898429 3.0415211 -3.7538085
v 0.1527469 0.1804767 0.0000000
vn 1.3038796 6.0313339 1.1495650
v 0.2062129 0.1859207 0.5951821
vn 1.6353091 5.9989023 0.8586918
v 0.2594664 0.1838615 0.5295596
vn 0.9886497 6.1386995 0.8586920
v 0.1568643 0.2060424 0.5295596
vn 0.6509754 6.0919733 1.3755322
v 0.1022414 0.1888432 0.6599917
vn 0.1631677 3.0626156 3.8193836
v 0.0511085 0.1913376 0.6666720
vn 0.9741577 6.0487127 1.3755291
v 0.1530000 0.1820487 0.6599917
vn 0.8066237 2.9589870 3.8193779
v 0.2526559 0.1588780 0.6666720
vn -3.0116153 3.1383905 -0.0075701
v 0.0000000 0.2320488 0.3298619
vn 0.6662827 6.2352219 0.2762401
v 0.1061056 0.2250053 0.3966934
vn 0.6661330 6.2338228 -0.3065171
v 0.1060714 0.2246846 0.2630413
vn 0.6602083 6.1783776 -0.8889341
v 0.1047213 0.2120506 0.1302611
vn 0.3325696 6.2422428 0.5675474
v 0.0528892 0.2247605 0.4633282
vn -3.0123420 3.0853319 0.5747823
v 0.0000000 0.2079562 0.5951821
vn 0.9980274 6.1969280 -0.0151406
v 0.1590037 0.2193269 0.3298619
vn 4.1440568 2.9036629 -0.6578758
v 0.3477152 0.1381264 0.0440223
vn 1.6341904 5.9948015 -0.8889342
v 0.2592130 0.1829320 0.1302611
vn 1.3202784 6.1071925 -0.5978121
v 0.2099252 0.2030924 0.1964387
vn 4.1482430 2.9423661 -0.4441088
v 0.3477152 0.1546281 0.1327144
vn 1.9227061 5.9498081 0.5680009
v 0.3121156 0.1759016 0.4633282
vn 1.3208756 6.1099486 0.5675473
v 0.2100612 0.2037217 0.4633282
vn 1.9133000 5.8187919 1.3833438
v 0.3021072 0.1456354 0.6599917
vn 4.1467891 2.9301243 0.5224382
v 0.3477152 0.1475472 0.5762167
vn 1.9271377 5.9755502 -0.0161678
v 0.3139618 0.1814847 0.3298619
vn 1.6492261 6.0499568 0.2762402
v 0.2626396 0.1955018 0.3966934
vn 4.1504397 2.9714890 -0.1436171
v 0.3477152 0.1680186 0.2669154
vn 0.1638996 3.0763505 -3.7538090
v 0.0511085 0.1913376 0.0000000
vn 1.3026747 6.0257602 -1.1797706
v 0.2059425 0.1846698 0.0647137
vn 1.6113367 5.9109659 1.3755239
v 0.2530746 0.1604142 0.6599917
vn 0.3258734 3.0495968 3.8193865
v 0.1020722 0.1872599 0.6666720
vn 0.6480580 2.9977095 3.8193781
v 0.2029888 0.1710071 0.6666720
vn 0.6556516 6.1357322 1.1495644
v 0.1036935 0.2024317 0.5951821
vn 0.3336132 6.2618389 0.2762401
v 0.0531280 0.2292440 0.3966934
vn 0.9939436 6.1715698 0.5675473
v 0.1580687 0.2135213 0.4633282
vn 0.3335395 6.2604342 -0.3065173
v 0.0531109 0.2289220 0.2630413
vn 0.9802481 6.0865312 -1.1797707
v 0.1549695 0.1942772 0.0647137
vn 0.3305721 6.2047524 -0.8889343
v 0.0524349 0.2162341 0.1302611
vn -3.0117898 3.1255474 0.2837737
v 0.0000000 0.2261684 0.4633282
vn -3.0338795 3.0633283 0.6877635
v 0.0000000 0.1942903 0.6599917
vn 1.3263025 6.1350555 -0.0151406
v 0.2113038 0.2094694 0.3298619
vn 0.9968400 6.1895552 -0.3065174
v 0.1587314 0.2176356 0.2630413
vn 4.1610298 2.9111497 -0.5959623
v 0.3477152 0.1425386 0.0647085
vn 1.6214111 5.9479218 -1.1797706
v 0.2563322 0.1723642 0.0647137
vn 1.6433232 6.0283017 -0.5978122
v 0.2612894 0.1905488 0.1964387
vn 0.9934951 6.1687841 -0.5978118
v 0.1579664 0.2128856 0.1964387
vn 4.1505480 2.9709468 0.1540027
v 0.3477152 0.1679205 0.4017182
vn 4.1447515 2.9677632 -0.2346707
v 0.3477152 0.1650575 0.2220666
vn 4.1478291 2.9752798 -0.0654074
v 0.3477152 0.1694823 0.3118192
vn 1.9318151 5.9659419 -0.3065068
v 0.3134240 0.1798583 0.2630413
vn 0.3273349 3.0632737 -3.7538085
v 0.1020722 0.1872599 0.0000000
vn 0.6509638 3.0111527 -3.7538085
v 0.2029888 0.1710071 0.0000000
vn 0.3282903 6.1619244 1.1495645
v 0.0519203 0.2065741 0.5951821
vn 0.6606599 6.1826043 0.8586917
v 0.1048237 0.2130085 0.5295596
vn -3.0120473 3.1067758 -0.4444671
v 0.0000000 0.2176299 0.1302611
vn 0.3324194 6.2394257 -0.5978118
v 0.0528549 0.2241175 0.1964387
vn 0.3307983 6.2089963 0.8586917
v 0.0524862 0.2171960 0.5295596
vn 1.3247240 6.1277556 -0.3065175
v 0.2109418 0.2077950 0.2630413
vn 4.1474495 2.9674053 0.2276746
v 0.3477152 0.1651215 0.4438306
vn 4.1440916 2.9766233 0.0611124
v 0.3477152 0.1694506 0.3567593
vn 1.9316113 5.9674578 0.2774457
v 0.3135253 0.1801644 0.3966934
vn 4.1650491 2.9550788 -0.2988017
v 0.3477152 0.1626874 0.1964365
vn -3.0118120 3.1241372 -0.2989061
v 0.0000000 0.2255245 0.1964387
vn 4.1650634 2.9559381 0.2901132
v 0.3477152 0.1633747 0.4633304
# 109 vertices, 0 vertices normals

f 8//8 5//5 2//2
f 8//8 1//1 5//5
f 37//37 12//12 25//25
f 39//39 25//25 4//4
f 42//42 26//26 6//6
f 43//43 41//41 27//27
f 45//45 24//24 4//4
f 49//49 48//48 20//20
f 49//49 30//30 48//48
f 49//49 43//43 6//6
f 49//49 20//20 43//43
f 50//50 48//48 30//30
f 50//50 13//13 48//48
f 52//52 31//31 3//3
f 52//52 51//51 31//31
f 53//53 48//48 13//13
f 53//53 32//32 48//48
f 53//53 51//51 21//21
f 55//55 33//33 22//22
f 55//55 14//14 33//33
f 56//56 10//10 33//33
f 57//57 33//33 10//10
f 58//58 34//34 19//19
f 58//58 29//29 46//46
f 59//59 23//23 56//56
f 61//61 36//36 17//17
f 61//61 56//56 36//36
f 61//61 10//10 56//56
f 62//62 37//37 25//25
f 62//62 15//15 37//37
f 64//64 38//38 19//19
f 65//65 39//39 4//4
f 65//65 4//4 24//24
f 66//66 6//6 26//26
f 66//66 49//49 6//6
f 66//66 40//40 49//49
f 67//67 49//49 40//40
f 67//67 30//30 49//49
f 68//68 9//9 16//16
f 68//68 54//54 9//9
f 68//68 16//16 41//41
f 68//68 41//41 43//43
f 68//68 43//43 20//20
f 69//69 43//43 27//27
f 69//69 42//42 6//6
f 69//69 6//6 43//43
f 70//70 28//28 44//44
f 71//71 67//67 40//40
f 71//71 17//17 67//67
f 71//71 70//70 44//44
f 71//71 40//40 66//66
f 73//73 46//46 29//29
f 73//73 18//18 7//7
f 73//73 7//7 46//46
f 74//74 19//19 38//38
f 74//74 38//38 63//63
f 75//75 48//48 32//32
f 75//75 20//20 48//48
f 75//75 68//68 20//20
f 75//75 54//54 68//68
f 76//76 21//21 51//51
f 76//76 51//51 52//52
f 77//77 53//53 21//21
f 77//77 32//32 53//53
f 77//77 75//75 32//32
f 77//77 54//54 75//75
f 77//77 21//21 76//76
f 77//77 9//9 54//54
f 77//77 16//16 9//9
f 77//77 1//1 16//16
f 77//77 5//5 1//1
f 77//77 3//3 5//5
f 77//77 76//76 52//52
f 77//77 52//52 3//3
f 78//78 53//53 13//13
f 78//78 51//51 53//53
f 78//78 13//13 50//50
f 79//79 56//56 33//33
f 79//79 33//33 14//14
f 79//79 59//59 56//56
f 79//79 14//14 59//59
f 80//80 56//56 23//23
f 80//80 36//36 56//56
f 80//80 67//67 17//17
f 80//80 17//17 36//36
f 80//80 50//50 30//30
f 80//80 30//30 67//67
f 81//81 57//57 34//34
f 81//81 22//22 33//33
f 81//81 33//33 57//57
f 82//82 58//58 19//19
f 82//82 29//29 58//58
f 82//82 19//19 74//74
f 82//82 74//74 47//47
f 82//82 47//47 29//29
f 83//83 58//58 46//46
f 84//84 59//59 14//14
f 85//85 3//3 31//31
f 85//85 31//31 60//60
f 86//86 61//61 17//17
f 86//86 71//71 44//44
f 86//86 17//17 71//71
f 86//86 44//44 28//28
f 87//87 57//57 10//10
f 87//87 10//10 61//61
f 87//87 34//34 57//57
f 87//87 61//61 86//86
f 88//88 62//62 25//25
f 88//88 25//25 39//39
f 89//89 63//63 4//4
f 89//89 4//4 25//25
f 89//89 74//74 63//63
f 89//89 25//25 12//12
f 89//89 12//12 74//74
f 90//90 45//45 4//4
f 90//90 4//4 63//63
f 90//90 63//63 38//38
f 90//90 38//38 64//64
f 91//91 64//64 19//19
f 91//91 19//19 34//34
f 91//91 87//87 64//64
f 91//91 34//34 87//87
f 94//94 70//70 11//11
f 95//95 93//93 45//45
f 95//95 72//72 93//93
f 95//95 94//94 72//72
f 95//95 90//90 28//28
f 95//95 45//45 90//90
f 95//95 28//28 70//70
f 95//95 70//70 94//94
f 96//96 73//73 29//29
f 96//96 29//29 47//47
f 97//97 74//74 12//12
f 97//97 47//47 74//74
f 97//97 96//96 47//47
f 97//97 12//12 37//37
f 97//97 37//37 15//15
f 97//97 15//15 8//8
f 97//97 8//8 2//2
f 97//97 2//2 18//18
f 97//97 18//18 73//73
f 97//97 73//73 96//96
f 98//98 60//60 31//31
f 98//98 35//35 60//60
f 98//98 31//31 51//51
f 98//98 51//51 78//78
f 99//99 78//78 50//50
f 99//99 80//80 23//23
f 99//99 50//50 80//80
f 99//99 23//23 59//59
f 100//100 83//83 46//46
f 100//100 46//46 7//7
f 101//101 34//34 58//58
f 101//101 58//58 83//83
f 101//101 81//81 34//34
f 101//101 22//22 81//81
f 101//101 83//83 100//100
f 102//102 84//84 35//35
f 102//102 59//59 84//84
f 102//102 99//99 59//59
f 102//102 35//35 98//98
f 102//102 98//98 78//78
f 102//102 78//78 99//99
f 103//103 87//87 86//86
f 103//103 86//86 28//28
f 103//103 64//64 87//87
f 103//103 90//90 64//64
f 103//103 28//28 90//90
f 105//105 11//11 70//70
f 106//106 71//71 66//66
f 106//106 70//70 71//71
f 106//106 92//92 105//105
f 106//106 104//104 92//92
f 106//106 66//66 104//104
f 106//106 105//105 70//70
f 107//107 24//24 45//45
f 107//107 45//45 93//93
f 108//108 101//101 100//100
f 108//108 22//22 101//101
f 108//108 55//55 22//22
f 108//108 14//14 55//55
f 108//108 84//84 14//14
f 108//108 35//35 84//84
f 108//108 60//60 35//35
f 108//108 85//85 60//60
f 108//108 3//3 85//85
f 108//108 5//5 3//3
f 108//108 2//2 5//5
f 108//108 18//18 2//2
f 108//108 100//100 7//7
f 108//108 7//7 18//18
f 109//109 104//104 66//66
f 109//109 66//66 26//26
f 109//109 92//92 104//104
f 109//109 26//26 42//42
f 109//109 105//105 92//92
f 109//109 42//42 69//69
f 109//109 11//11 105//105
f 109//109 69//69 27//27
f 109//109 94//94 11//11
f 109//109 27//27 41//41
f 109//109 72//72 94//94
f 109//109 41//41 16//16
f 109//109 107//107 93//93
f 109//109 93//93 72//72
f 109//109 16//16 1//1
f 109//109 1//1 8//8
f 109//109 8//8 15//15
f 109//109 15//15 62//62
f 109//109 62//62 88//88
f 109//109 88//88 39//39
f 109//109 39//39 65//65
f 109//109 65//65 24//24
f 109//109 24//24 107//107
# 214 faces, 0 coords texture

# End of File
